<svg xmlns="http://www.w3.org/2000/svg" xml:space="preserve" enable-background="new 0 0 165.5 106" viewBox="0 0 165.5 106">
  <path d="M150.7 0H13.1a71 71 0 0 0-4.5.3A10.5 10.5 0 0 0 3 3.1 10 10 0 0 0 .3 8.6 20.6 20.6 0 0 0 0 13v79.7a70.3 70.3 0 0 0 .3 4.6 10.5 10.5 0 0 0 2.8 5.5 9.9 9.9 0 0 0 5.5 2.8 21 21 0 0 0 4.5.3h139.3a79.7 79.7 0 0 0 4.5-.3 10.5 10.5 0 0 0 5.5-2.8 10 10 0 0 0 2.8-5.5 20.6 20.6 0 0 0 .3-4.6V13.1a63 63 0 0 0-.3-4.5 10.4 10.4 0 0 0-2.8-5.5A10 10 0 0 0 157 .3a20.8 20.8 0 0 0-4.5-.3h-1.7z"/>
  <path fill="#FFF" d="M150.7 3.5h1.7a67.4 67.4 0 0 1 4 .3 6.4 6.4 0 0 1 5.4 5.4 17.6 17.6 0 0 1 .2 4v79.6a59.7 59.7 0 0 1-.3 4 6.9 6.9 0 0 1-1.8 3.6 6.4 6.4 0 0 1-3.6 1.8 18 18 0 0 1-4 .2H13.2a75 75 0 0 1-3.9-.2 7 7 0 0 1-3.6-1.8 6.4 6.4 0 0 1-1.8-3.6 17.5 17.5 0 0 1-.3-4V13.1a66.6 66.6 0 0 1 .3-3.9 7 7 0 0 1 1.8-3.6 6.4 6.4 0 0 1 3.6-1.8 17.6 17.6 0 0 1 4-.3h137.5"/>
  <path d="M45.2 35.6a9.2 9.2 0 0 0 2.1-6.5 9.2 9.2 0 0 0-8.2 9.4c2.3.2 4.6-1.1 6-2.9m2.2 3.4c-3.4-.2-6.3 1.9-7.9 1.9-1.6 0-4-1.8-6.8-1.8a10 10 0 0 0-8.4 5.2c-3.7 6.2-1 15.5 2.5 20.6 1.8 2.6 3.8 5.3 6.6 5.2 2.5 0 3.5-1.6 6.7-1.6 3.1 0 4 1.6 6.7 1.6 2.9 0 4.6-2.5 6.3-5 2-3 2.8-5.7 2.9-5.9 0 0-5.5-2-5.5-8.3 0-5.2 4.2-7.7 4.4-7.8a9.7 9.7 0 0 0-7.5-4.1m29.4-7c7.4 0 12.5 5 12.5 12.4S84 56.9 76.5 56.9h-8v13h-6v-38h14.2zm-8.3 20h6.8c5 0 8-2.8 8-7.6s-3-7.5-8-7.5h-6.8v15zm22.3 10c0-4.9 3.7-7.8 10.3-8.2l7.6-.4v-2.2c0-3-2.1-4.9-5.6-4.9-3.3 0-5.3 1.6-5.8 4h-5.4c.4-5 4.6-8.6 11.4-8.6 6.7 0 11 3.6 11 9v19.1h-5.4v-4.5h-.2c-1.6 3-5 5-8.7 5-5.4 0-9.2-3.4-9.2-8.3zm17.9-2.5v-2.2l-6.8.4c-3.4.3-5.3 1.8-5.3 4.1 0 2.4 2 4 5 4 4 0 7-2.7 7-6.3zM119.3 80v-4.6l1.9.1c2.6 0 4-1.1 4.9-4l.5-1.6-10-27.7h6.2l7 22.5 7-22.5h6l-10.3 29c-2.4 6.8-5.1 9-10.8 9l-2.4-.2z"/>
</svg>