<svg xmlns="http://www.w3.org/2000/svg" fill="none" viewBox="0 0 736 739">
  <g opacity=".1">
    <path fill="#000" fill-opacity=".2" d="M26.6 60c0-33.2 26.8-60 59.8-60h744.2c33 0 59.8 26.8 59.8 60v619a33.3 33.3 0 0 1-33.2 33.4H59.8A33.3 33.3 0 0 1 26.6 679V59.9Z"/>
    <path fill="#000" fill-opacity=".2" d="M26.6 332.9a33.3 33.3 0 0 1 33.2-33.3h797.4a33.3 33.3 0 0 1 33.2 33.3V679a33.3 33.3 0 0 1-33.2 33.3H59.8A33.3 33.3 0 0 1 26.6 679V332.9Z"/>
    <path fill="#fff" fill-rule="evenodd" d="M59.8 273h797.4c33 0 59.8 26.8 59.8 59.9V679a60 60 0 0 1-59.8 59.9H59.8A59.7 59.7 0 0 1 0 679V333a60 60 0 0 1 59.8-60Zm0 26.6a33.3 33.3 0 0 0-33.2 33.3V679a33.3 33.3 0 0 0 33.2 33.3h797.4a33.3 33.3 0 0 0 33.2-33.3V332.9a33.3 33.3 0 0 0-33.2-33.3H59.8Z" clip-rule="evenodd"/>
    <path fill="#000" fill-opacity=".4" d="M26.6 472.7a33.3 33.3 0 0 1 33.2-33.3h797.4a33.3 33.3 0 0 1 33.2 33.3V679a33.3 33.3 0 0 1-33.2 33.3H59.8A33.3 33.3 0 0 1 26.6 679V472.7Z"/>
    <path fill="#fff" fill-rule="evenodd" d="M59.8 412.8h797.4c33 0 59.8 26.8 59.8 59.9V679a60 60 0 0 1-59.8 59.9H59.8A59.7 59.7 0 0 1 0 679V472.8a60 60 0 0 1 59.8-60Zm0 26.6c-18.3 0-33.2 15-33.2 33.3V679a33.3 33.3 0 0 0 33.2 33.3h797.4a33.3 33.3 0 0 0 33.2-33.3V472.7a33.3 33.3 0 0 0-33.2-33.3H59.8Z" clip-rule="evenodd"/>
    <path fill="#000" fill-opacity=".5" d="M26.6 612.5a33.3 33.3 0 0 1 33.2-33.3h797.4a33.3 33.3 0 0 1 33.2 33.3v66.6a33.3 33.3 0 0 1-33.2 33.3H59.8A33.3 33.3 0 0 1 26.6 679v-66.6Z"/>
    <path fill="#fff" fill-rule="evenodd" d="M59.8 552.6h797.4c33 0 59.8 26.8 59.8 59.9v66.6a60 60 0 0 1-59.8 59.9H59.8C26.8 739 0 712.2 0 679v-66.5a60 60 0 0 1 59.8-60Zm0 26.6a33.3 33.3 0 0 0-33.2 33.3v66.6a33.3 33.3 0 0 0 33.2 33.3h797.4a33.3 33.3 0 0 0 33.2-33.3v-66.6a33.3 33.3 0 0 0-33.2-33.3H59.8Z" clip-rule="evenodd"/>
    <path fill="#000" d="M747.6 60h-6.7a83.1 83.1 0 0 0 0 166.4h6.7a83.2 83.2 0 0 0 0-166.4Z"/>
  </g>
</svg>