<svg xmlns="http://www.w3.org/2000/svg" fill="none" viewBox="0 0 20 21" class="dark:invert">
  <style>
    path {
      fill: #8D8D8D;
    }
    @media (prefers-color-scheme: dark) {
      path { fill: white; }
    }
  </style>
  <g fill="currentColor" clip-path="url(#a)">
    <path fill="currentColor" d="M17.1 5.84c-.52.12-.55 1.78-.11 3.7.44 1.93 1.2 3.4 1.7 3.29.52-.12.85-1.55.4-3.48-.44-1.93-1.48-3.63-2-3.5Zm-15.67 9.6C.5 14.34.2 12.8.2 10.89a9.67 9.67 0 0 1 9.8-9.7c2.95 0 5.21.91 7 3.01 1.5 1.75 2.79 4.19 2.79 6.69 0 1.82-.3 3.2-1.13 4.28a6.8 6.8 0 0 1-2.79 2.05c-.01 1.05-.14 2.19-1.3 2.85-1.02.57-3.28.7-4.7.7-1.87 0-3.73.03-4.8-.88-.69-.58-.98-1.77-1.04-2.63a6.58 6.58 0 0 1-2.6-1.82Zm8.53-3.41a4.71 4.71 0 1 0-.02-9.42 4.71 4.71 0 0 0 .02 9.42Zm-8.68.56c.5.14 1.3-1.31 1.82-3.22.5-1.91.54-3.57.02-3.7-.5-.14-1.46.97-1.97 2.88s-.38 3.9.13 4.04Zm4.06 6.66c.94.62 2.74.73 4.44.73 1.9 0 3.99 0 4.96-.83.58-.48.61-1.85.61-2.47 0-.26-.07-.65-.26-.9-.41-.52-1.2-.84-1.83-1.13-.96-.46-1.71-.53-3.26-.53-1.43 0-2.51.14-3.52.53-.82.3-1.8.79-2.1 1.31-.1.2 0 .47 0 .72 0 .73.25 2.1.96 2.57Zm2.53-.84c-.3 0-.52-.3-.52-1.75 0-1.46.23-1.75.52-1.75.29 0 .52.3.52 1.75s-.23 1.75-.52 1.75Zm4.17 0c-.28 0-.52-.3-.52-1.75 0-1.46.24-1.75.52-1.75.3 0 .53.3.53 1.75s-.24 1.75-.53 1.75Z"/>
  </g>
  <defs>
    <clipPath id="a">
      <path fill="#fff" d="M0 0h20v20H0z" transform="translate(0 .98)"/>
    </clipPath>
  </defs>
</svg>