<svg xmlns="http://www.w3.org/2000/svg" viewBox="0 0 71.65 24">
  <path
    d="M36.12 3.68c0-1.13.95-2.04 2.07-2.04s2.07.92 2.07 2.04-.92 2.07-2.07 2.07-2.07-.92-2.07-2.07Zm-6.14-1.76h3.6v20.16h-3.6V1.92Zm10.03 5.76h-3.63v14.4h3.63V7.68Zm26.09 6.71c2.73-1.68 4.59-4.18 5.32-6.72h-3.63c-.95 2.42-3.12 4.24-5.5 5.01V1.92h-3.63v20.16h3.63v-6c2.77.69 4.96 3.09 5.71 6h3.65c-.56-3.05-2.64-5.91-5.55-7.68Zm-19.66-5.1c.95-1.26 2.8-2 4.31-2 2.8 0 5.12 2.05 5.13 5.15v9.63h-3.63v-8.83c0-1.27-.57-2.74-2.4-2.74-2.16 0-3.4 1.92-3.4 4.16v7.43h-3.63V7.69h3.63v1.6Z" />
  <path d="M12 24c6.63 0 12-5.37 12-12S18.63 0 12 0 0 5.37 0 12s5.37 12 12 12Z" style="fill:#00d66f" />
  <path
    d="M11.45 4.8h-3.7c.72 3.01 2.82 5.58 5.45 7.2-2.64 1.62-4.73 4.19-5.45 7.2h3.7c.92-2.78 3.46-5.2 6.58-5.7v-3.01c-3.12-.49-5.66-2.91-6.58-5.69Z"
    style="fill:#011e0f" />
</svg>