<svg width="82" height="24" viewBox="0 0 82 24" fill="none" xmlns="http://www.w3.org/2000/svg">
<path fill-rule="evenodd" clip-rule="evenodd" d="M1.09783 14.4915C0.491516 14.4915 0 14.983 0 15.5893V18.5571C0.314078 18.3468 0.691822 18.2241 1.09822 18.2241H27.4462C27.8522 18.2241 28.2297 18.3466 28.5436 18.5566V15.5893C28.5436 14.983 28.0521 14.4915 27.4458 14.4915H1.09783ZM28.5436 20.1708C28.528 19.578 28.0426 19.1024 27.4462 19.1024H1.09822C0.491903 19.1024 0.000387245 19.5939 0.000387245 20.2002V22.3959C0.000387245 22.9843 0.463423 23.4647 1.04504 23.4924C1.06253 23.4933 1.08013 23.4937 1.09783 23.4937H27.4458C28.0521 23.4937 28.5436 23.0022 28.5436 22.3958V20.1708Z" fill="black" fill-opacity="0.4"/>
<path d="M0 20.2001C0 19.5938 0.491516 19.1023 1.09783 19.1023H27.4458C28.0521 19.1023 28.5436 19.5938 28.5436 20.2001V22.3958C28.5436 23.0021 28.0521 23.4936 27.4458 23.4936H1.09783C0.491517 23.4936 0 23.0021 0 22.3958V20.2001Z" fill="black" fill-opacity="0.5"/>
<path fill-rule="evenodd" clip-rule="evenodd" d="M1.9761 0C0.884729 0 0 0.884729 0 1.9761V9.33523C0.314078 9.12489 0.691822 9.00221 1.09822 9.00221H27.4462C27.8522 9.00221 28.2297 9.12469 28.5436 9.33472V1.9761C28.5436 0.884729 27.6589 0 26.5675 0H1.9761ZM28.5436 10.949C28.5281 10.3562 28.0427 9.88048 27.4462 9.88048H1.09822C0.491903 9.88048 0.000387245 10.372 0.000387245 10.9783V13.9459C0.314389 13.7357 0.691989 13.6132 1.09822 13.6132H27.4462C27.8522 13.6132 28.2297 13.7356 28.5436 13.9457V10.949ZM23.6042 1.97606C22.0884 1.97606 20.8596 3.20485 20.8596 4.72064C20.8596 6.23643 22.0884 7.46522 23.6042 7.46522H23.8238C25.3395 7.46522 26.5683 6.23643 26.5683 4.72064C26.5683 3.20485 25.3395 1.97606 23.8238 1.97606H23.6042Z" fill="black" fill-opacity="0.3"/>
<path d="M0 20.2001C0 19.5938 0.491516 19.1023 1.09783 19.1023H27.4458C28.0521 19.1023 28.5436 19.5938 28.5436 20.2001V22.3958C28.5436 23.0021 28.0521 23.4936 27.4458 23.4936H1.09783C0.491517 23.4936 0 23.0021 0 22.3958V20.2001Z" fill="black" fill-opacity="0.5"/>
<path fill-rule="evenodd" clip-rule="evenodd" d="M1.09783 14.4915C0.491516 14.4915 0 14.983 0 15.5893V18.5571C0.314078 18.3468 0.691822 18.2241 1.09822 18.2241H27.4462C27.8522 18.2241 28.2297 18.3466 28.5436 18.5566V15.5893C28.5436 14.983 28.0521 14.4915 27.4458 14.4915H1.09783ZM28.5436 20.1708C28.528 19.578 28.0426 19.1024 27.4462 19.1024H1.09822C0.491903 19.1024 0.000387245 19.5939 0.000387245 20.2002V22.3959C0.000387245 22.9843 0.463423 23.4647 1.04504 23.4924C1.06253 23.4933 1.08013 23.4937 1.09783 23.4937H27.4458C28.0521 23.4937 28.5436 23.0022 28.5436 22.3958V20.1708Z" fill="black" fill-opacity="0.4"/>
<path opacity="0.5" fill-rule="evenodd" clip-rule="evenodd" d="M1.09783 9.8999C0.491516 9.8999 0 10.3914 0 10.9977V13.9656C0.314078 13.7552 0.691822 13.6325 1.09822 13.6325H27.4462C27.8522 13.6325 28.2297 13.755 28.5436 13.965V10.9977C28.5436 10.3914 28.0521 9.8999 27.4458 9.8999H1.09783Z" fill="black" fill-opacity="0.4"/>
<path d="M35 18.4888V4.39697H40.4883C43.252 4.39697 45.166 6.25244 45.166 9.01611V9.03564C45.166 11.7896 43.252 13.6743 40.4883 13.6743H37.1875V18.4888H35ZM39.9414 6.24268H37.1875V11.8384H39.9414C41.8359 11.8384 42.9395 10.813 42.9395 9.04541V9.02588C42.9395 7.26807 41.8359 6.24268 39.9414 6.24268Z" fill="black"/>
<path d="M51.1834 18.6938C48.0681 18.6938 46.1638 16.6138 46.1638 13.1958V13.1763C46.1638 9.76807 48.0779 7.67822 51.1834 7.67822C54.2791 7.67822 56.1931 9.7583 56.1931 13.1763V13.1958C56.1931 16.6138 54.2888 18.6938 51.1834 18.6938ZM51.1834 16.9263C52.9998 16.9263 54.0349 15.5396 54.0349 13.1958V13.1763C54.0349 10.8228 52.9998 9.4458 51.1834 9.4458C49.3572 9.4458 48.3318 10.8228 48.3318 13.1763V13.1958C48.3318 15.5493 49.3572 16.9263 51.1834 16.9263Z" fill="black"/>
<path d="M57.9624 18.4888V7.8833H60.0816V9.48486H60.2378C60.6187 8.36182 61.605 7.69775 63.021 7.69775C63.3628 7.69775 63.7339 7.74658 63.9487 7.79541V9.74854C63.5679 9.67041 63.2066 9.62158 62.8062 9.62158C61.1851 9.62158 60.0816 10.6177 60.0816 12.1509V18.4888H57.9624Z" fill="black"/>
<path d="M69.429 18.5571C67.095 18.5571 66.138 17.7368 66.138 15.6958V9.55322H64.4778V7.8833H66.138V5.20752H68.2962V7.8833H70.5716V9.55322H68.2962V15.188C68.2962 16.3306 68.7259 16.7993 69.7708 16.7993C70.093 16.7993 70.2786 16.7896 70.5716 16.7603V18.4497C70.2298 18.5083 69.8391 18.5571 69.429 18.5571Z" fill="black"/>
<path d="M76.6573 18.6938C73.542 18.6938 71.6377 16.6138 71.6377 13.1958V13.1763C71.6377 9.76807 73.5518 7.67822 76.6573 7.67822C79.753 7.67822 81.667 9.7583 81.667 13.1763V13.1958C81.667 16.6138 79.7627 18.6938 76.6573 18.6938ZM76.6573 16.9263C78.4737 16.9263 79.5088 15.5396 79.5088 13.1958V13.1763C79.5088 10.8228 78.4737 9.4458 76.6573 9.4458C74.8311 9.4458 73.8057 10.8228 73.8057 13.1763V13.1958C73.8057 15.5493 74.8311 16.9263 76.6573 16.9263Z" fill="black"/>
</svg>
