<svg xmlns="http://www.w3.org/2000/svg" fill="none" viewBox="0 0 71 14">
  <style>
    path {
      fill: #000
    }

    @media (prefers-color-scheme:dark) {
      path {
        fill: #fff
      }
    }
  </style>
  <path
    d="M12.01 7.1c.48-.14 1 .05 1.25.46l2.78 4.55c.35.57-.08 1.3-.78 1.3H.9c-.73 0-1.16-.8-.73-1.37l1.27-1.7c.14-.2.34-.33.57-.4L12 7.1Z" />
  <path d="M6.85.68c.2-.35.76-.26.84.13l1.18 5.86a.6.6 0 0 1-.44.7L2.86 8.99c-.39.12-.72-.28-.52-.62z" opacity=".75" />
  <path d="M8.28.3c-.06-.28.34-.42.5-.17l3.53 5.83c.09.15 0 .34-.16.38l-2.05.55a.45.45 0 0 1-.56-.34L8.28.31Z"
    opacity=".5" />
  <path
    d="M22.44.54h1.34v1.32h-1.34zm0 3.43h1.32v8.7h-1.32zm8.46 8.9c-.7 0-1.24-.1-1.6-.29a1.43 1.43 0 0 1-.7-.86 5.8 5.8 0 0 1-.19-1.66V5.21h-2.24V3.97h2.3l.12-2.5h1.3l-.12 2.5h3.05v1.24h-3.05V10c0 .39.04.7.12.91a1 1 0 0 0 .48.52c.25.11.6.17 1.08.17h1.73v1.27zM35.87.54h1.4v4.72h.11c.26-.58.56-.97.92-1.17.36-.21.92-.32 1.68-.32.74 0 1.3.1 1.7.3s.69.54.86 1c.17.47.26 1.15.26 2.02v5.6h-1.38V7.05q0-.795-.18-1.23c-.11-.3-.3-.5-.57-.62a2.8 2.8 0 0 0-1.13-.18c-.6 0-1.06.09-1.38.28s-.55.5-.7.95c-.13.44-.2 1.08-.2 1.9v4.52h-1.4V.54Zm12.1 12.31c-.71 0-1.26-.08-1.65-.23a1.48 1.48 0 0 1-.81-.79 4.2 4.2 0 0 1-.24-1.57c0-.8.12-1.41.35-1.85q.345-.66 1.17-.93a7.6 7.6 0 0 1 2.34-.29h1.56v-.41c0-.47-.06-.83-.18-1.09a1 1 0 0 0-.6-.55 3.4 3.4 0 0 0-1.2-.16c-.67 0-1.13.08-1.38.26-.24.17-.37.5-.4.99h-1.4c0-.65.1-1.14.3-1.49q.27-.525.96-.75c.45-.15 1.1-.23 1.92-.23.87 0 1.53.09 2 .26.48.18.8.49 1 .92.2.44.3 1.05.3 1.84v5.9h-1.27v-1.11h-.11c-.3.48-.62.82-1 1.01-.37.18-.92.27-1.66.27m.35-1.25c.62 0 1.1-.1 1.42-.29.34-.2.58-.52.72-.98s.22-1.1.22-1.95l-1.88.02c-.56 0-.99.07-1.3.18-.3.1-.51.27-.65.52-.12.23-.18.57-.18 1.01 0 .58.12.98.35 1.19.23.2.66.3 1.3.3m10.23 1.25a5.3 5.3 0 0 1-2.3-.4 2.4 2.4 0 0 1-1.14-1.37 8.9 8.9 0 0 1-.33-2.75c0-1.2.1-2.13.33-2.77.23-.66.61-1.12 1.15-1.39a5 5 0 0 1 2.26-.41c.82 0 1.45.08 1.9.25.46.16.8.45 1 .85.22.39.34.94.39 1.67h-1.38c-.11-.58-.3-.98-.55-1.19-.25-.2-.68-.31-1.26-.31-.65 0-1.14.1-1.48.3-.35.2-.6.54-.75 1.01a7.2 7.2 0 0 0-.22 2.02c0 .85.07 1.5.22 1.95q.225.69.75.99c.35.19.85.28 1.5.28.57 0 .98-.09 1.22-.27q.39-.27.57-1.05h1.38a3.8 3.8 0 0 1-.38 1.57c-.21.37-.55.63-1 .79a5.9 5.9 0 0 1-1.88.23m8.35 0c-.7 0-1.25-.08-1.64-.23a1.48 1.48 0 0 1-.81-.79 4.2 4.2 0 0 1-.24-1.57c0-.8.12-1.41.35-1.85q.345-.66 1.17-.93a7.6 7.6 0 0 1 2.34-.29h1.56v-.41c0-.47-.06-.83-.18-1.09a1 1 0 0 0-.6-.55 3.4 3.4 0 0 0-1.2-.16c-.67 0-1.13.08-1.38.26-.24.17-.37.5-.4.99h-1.4c0-.65.1-1.14.3-1.49q.27-.525.96-.75c.45-.15 1.1-.23 1.92-.23.87 0 1.53.09 2 .26.48.18.8.49 1 .92.2.44.3 1.05.3 1.84v5.9h-1.27v-1.11h-.11c-.3.48-.62.82-1 1.01-.37.18-.92.27-1.66.27Zm.36-1.25c.62 0 1.1-.1 1.43-.29.33-.2.57-.52.71-.98s.22-1.1.22-1.95l-1.88.02c-.56 0-.99.07-1.3.18-.3.1-.51.27-.65.52-.12.23-.18.57-.18 1.01 0 .58.12.98.35 1.19.23.2.66.3 1.3.3" />
  <path fill-rule="evenodd"
    d="M22.39.48h1.44v1.44H22.4V.48Zm0 3.44h1.42v8.8H22.4v-8.8Zm10.8 7.68v1.27H30.9c-.7 0-1.24-.1-1.6-.29a1.43 1.43 0 0 1-.7-.86 5.8 5.8 0 0 1-.19-1.66V5.21h-2.24V3.97h2.3l.12-2.5h1.3l-.12 2.5h3.05v1.24h-3.05V10c0 .39.04.7.12.91a1 1 0 0 0 .48.52c.25.11.6.17 1.08.17h1.73Zm-2.8-.22c.24.11.59.16 1.06.16h1.73v.06-.05h.06v1.37h-.06v-.05.05H30.9c-.7 0-1.25-.1-1.62-.29-.36-.2-.61-.5-.74-.9-.12-.4-.18-.95-.18-1.67v-4.8H26.1V3.92h2.32l.11-2.5h1.4l-.11 2.5h3.04v1.34h-3.04V10c0 .38.04.68.11.9.08.2.23.37.46.48M35.83.48h1.5v4.73h.03c.25-.57.56-.96.92-1.17a3.5 3.5 0 0 1 1.7-.32q1.125 0 1.74.3c.41.21.7.56.88 1.04a6 6 0 0 1 .27 2.03v5.65h-1.5V7.06c0-.53-.05-.93-.17-1.21-.1-.28-.29-.48-.54-.6a2.7 2.7 0 0 0-1.1-.17c-.6 0-1.05.1-1.36.28-.3.18-.53.48-.67.92-.13.43-.2 1.06-.2 1.88v4.58h-1.5zm6.72 4.6a1.7 1.7 0 0 0-.85-1q-.6-.3-1.71-.3c-.76 0-1.32.1-1.68.31-.36.2-.66.6-.92 1.17h-.11V.54h-1.4v12.14h1.4V8.16c0-.82.06-1.46.2-1.9s.37-.76.7-.95c.31-.19.77-.28 1.37-.28.5 0 .87.06 1.13.18.27.12.46.33.57.62q.18.435.18 1.23v5.62h1.38V7.1a6.1 6.1 0 0 0-.26-2.01Zm3.76 7.59a1.54 1.54 0 0 1-.84-.82q-.24-.555-.24-1.59c0-.8.12-1.43.35-1.87q.36-.69 1.2-.96c.56-.2 1.35-.29 2.36-.29h1.5v-.36c0-.47-.05-.82-.17-1.06a.96.96 0 0 0-.57-.53 3.3 3.3 0 0 0-1.18-.16 5 5 0 0 0-.84.06c-.22.05-.4.11-.5.2-.23.15-.36.46-.38.94v.05h-1.5v-.05c0-.65.09-1.16.28-1.51.2-.37.53-.63 1-.78a6.3 6.3 0 0 1 1.94-.24c.87 0 1.54.1 2.02.27.49.19.83.5 1.03.95q.3.66.3 1.86v5.96H50.7v-1.12h-.03c-.3.48-.63.82-1 1.01-.38.18-.95.27-1.7.27-.7 0-1.26-.07-1.66-.23m4.33-1.1h.11v1.11h1.27v-5.9c0-.8-.1-1.4-.3-1.84a1.67 1.67 0 0 0-1-.92 5.8 5.8 0 0 0-2-.26c-.83 0-1.47.08-1.92.23-.46.15-.78.4-.97.75a3.1 3.1 0 0 0-.28 1.49h1.4c.02-.5.15-.82.4-.99.24-.18.7-.26 1.37-.26.53 0 .92.05 1.2.16.29.11.49.3.6.55.12.26.18.62.18 1.09v.41h-1.56c-1 0-1.79.1-2.34.29q-.825.27-1.17.93a4 4 0 0 0-.35 1.85c0 .68.08 1.2.24 1.57s.43.63.81.79c.39.15.94.23 1.65.23.74 0 1.3-.09 1.66-.27.38-.19.7-.53 1-1.01m-3.11-2.94a1 1 0 0 0-.62.5 2.2 2.2 0 0 0-.18.98c0 .58.12.95.33 1.15.22.18.64.29 1.27.29.61 0 1.08-.1 1.4-.28.32-.2.55-.5.69-.96.14-.43.21-1.06.21-1.88l-1.82.02a4.2 4.2 0 0 0-1.28.18m1.28-.23 1.88-.02v.05c0 .82-.08 1.45-.22 1.9-.14.46-.38.78-.72.98-.33.2-.8.29-1.42.29-.64 0-1.07-.1-1.3-.3-.23-.21-.35-.6-.35-1.19 0-.44.06-.78.18-1.01.14-.25.35-.42.65-.52.31-.11.74-.17 1.3-.18m7.43 4.1a2.46 2.46 0 0 1-1.17-1.4 8.9 8.9 0 0 1-.34-2.77c0-1.2.11-2.13.34-2.79.23-.67.63-1.14 1.17-1.41.54-.29 1.3-.43 2.29-.43.82 0 1.46.09 1.93.26q.69.255 1.02.87c.22.4.35.97.4 1.7v.05h-1.49v-.04c-.11-.58-.3-.96-.53-1.16q-.36-.3-1.23-.3c-.64 0-1.12.1-1.46.3a1.6 1.6 0 0 0-.72.98 7.2 7.2 0 0 0-.21 2c0 .85.07 1.49.21 1.94.15.44.4.76.72.95.35.18.84.28 1.47.28.58 0 .97-.1 1.2-.26.24-.18.43-.51.55-1.02v-.04h1.49v.06a3.7 3.7 0 0 1-.4 1.59 1.8 1.8 0 0 1-1.02.8 5.7 5.7 0 0 1-1.9.24c-.99 0-1.76-.13-2.32-.4m4.2.12c.45-.16.79-.42 1-.79a3.6 3.6 0 0 0 .38-1.57h-1.38q-.18.78-.57 1.05-.36.27-1.23.27a3.4 3.4 0 0 1-1.5-.28 1.7 1.7 0 0 1-.74-.99 6.8 6.8 0 0 1-.22-1.95c0-.88.07-1.55.22-2.02s.4-.81.75-1.01c.34-.2.83-.3 1.48-.3.58 0 1 .1 1.26.31s.44.6.55 1.19h1.38v-.06a4 4 0 0 0-.38-1.61c-.21-.4-.55-.69-1-.85a5.8 5.8 0 0 0-1.91-.25c-.98 0-1.73.14-2.26.41-.54.27-.92.73-1.15 1.39a9 9 0 0 0-.33 2.77c0 1.19.1 2.1.33 2.75a2.4 2.4 0 0 0 1.15 1.37c.54.27 1.3.4 2.29.4.8 0 1.44-.08 1.88-.23m4.81.05a1.54 1.54 0 0 1-.84-.82q-.24-.555-.24-1.59c0-.8.12-1.43.36-1.87.24-.46.64-.78 1.19-.96.56-.2 1.35-.29 2.36-.29h1.51v-.36c0-.47-.06-.82-.18-1.06a.96.96 0 0 0-.57-.53 3.3 3.3 0 0 0-1.18-.16 5 5 0 0 0-.84.06c-.22.05-.4.11-.5.2-.23.15-.36.46-.38.94v.05h-1.5v-.05c0-.65.09-1.16.28-1.51.2-.37.53-.63 1-.78a6.3 6.3 0 0 1 1.94-.24c.87 0 1.54.1 2.02.27.49.19.83.5 1.03.95q.3.66.3 1.86v5.96h-1.37v-1.12h-.03c-.3.48-.63.82-1 1.01-.38.18-.95.27-1.7.27-.7 0-1.26-.07-1.66-.23m4.33-1.1h.11v1.11h1.27v-5.9c0-.8-.1-1.4-.3-1.84a1.67 1.67 0 0 0-1-.92 5.8 5.8 0 0 0-2-.26c-.83 0-1.47.08-1.92.23-.46.15-.78.4-.97.75a3.1 3.1 0 0 0-.28 1.49h1.4c.02-.5.15-.82.4-.99.24-.18.7-.26 1.37-.26.53 0 .92.05 1.2.16.29.11.49.3.6.55.12.26.18.62.18 1.09v.41h-1.56c-1 0-1.79.1-2.34.29q-.825.27-1.17.93a4 4 0 0 0-.35 1.85c0 .68.08 1.2.24 1.57s.43.63.81.79c.39.15.94.23 1.65.23.74 0 1.3-.09 1.66-.27.38-.19.7-.53 1-1.01m-3.11-2.94c-.29.1-.5.26-.62.5a2.2 2.2 0 0 0-.18.98c0 .58.12.95.33 1.15.22.18.64.29 1.27.29.61 0 1.08-.1 1.4-.28.32-.2.55-.5.69-.96.14-.43.21-1.06.21-1.88l-1.82.02a4.2 4.2 0 0 0-1.28.18m1.28-.23c-.56 0-.99.07-1.3.18-.3.1-.51.27-.65.52-.12.23-.18.57-.18 1.01 0 .58.12.98.35 1.19.23.2.66.3 1.3.3.62 0 1.1-.1 1.43-.29.33-.2.57-.52.71-.98a6.7 6.7 0 0 0 .22-1.9v-.05zM22.44.54v1.32h1.34V.54zm0 12.13h1.32v-8.7h-1.32z"
    clip-rule="evenodd" />
</svg>