<svg xmlns="http://www.w3.org/2000/svg" width="388" height="126" fill="none">
  <path fill="#999" fill-rule="evenodd"
    d="M22.568 23.96A6.57 6.57 0 0 0 16 30.527v67.865a3.65 3.65 0 0 0 3.649 3.649h87.567a3.65 3.65 0 0 0 3.649-3.65V30.528a6.57 6.57 0 0 0-6.568-6.568zm71.878 6.567a9.122 9.122 0 0 0 0 18.243h.73a9.12 9.12 0 0 0 9.121-9.121 9.12 9.12 0 0 0-9.121-9.122z"
    clip-rule="evenodd" />
  <mask id="a" width="95" height="80" x="16" y="23" maskUnits="userSpaceOnUse" style="mask-type:alpha">
    <path fill="#fff" fill-rule="evenodd"
      d="M22.568 23.96A6.57 6.57 0 0 0 16 30.527v67.865a3.65 3.65 0 0 0 3.649 3.649h87.567a3.65 3.65 0 0 0 3.649-3.65V30.528a6.57 6.57 0 0 0-6.568-6.568zm71.878 6.567a9.122 9.122 0 0 0 0 18.243h.73a9.12 9.12 0 0 0 9.121-9.121 9.12 9.12 0 0 0-9.121-9.122z"
      clip-rule="evenodd" />
  </mask>
  <g mask="url(#a)">
    <path fill="#CBCBCB"
      d="M16 60.446a3.65 3.65 0 0 1 3.649-3.649h87.567a3.65 3.65 0 0 1 3.649 3.649v37.946a3.65 3.65 0 0 1-3.649 3.649H19.649A3.65 3.65 0 0 1 16 98.391z" />
    <path fill="#999" fill-rule="evenodd"
      d="M19.649 53.878h87.567a6.567 6.567 0 0 1 6.568 6.568v37.946a6.567 6.567 0 0 1-6.568 6.567H19.649a6.567 6.567 0 0 1-6.568-6.567V60.446a6.57 6.57 0 0 1 6.568-6.568m0 2.92A3.65 3.65 0 0 0 16 60.445v37.946a3.65 3.65 0 0 0 3.649 3.649h87.567a3.65 3.65 0 0 0 3.649-3.65V60.447a3.65 3.65 0 0 0-3.649-3.649z"
      clip-rule="evenodd" />
    <path fill="#DDD"
      d="M16 75.77a3.65 3.65 0 0 1 3.649-3.648h87.567a3.65 3.65 0 0 1 3.649 3.648v22.622a3.65 3.65 0 0 1-3.649 3.649H19.649A3.65 3.65 0 0 1 16 98.391z" />
    <path fill="#999" fill-rule="evenodd"
      d="M19.649 69.203h87.567a6.567 6.567 0 0 1 6.568 6.567v22.622a6.567 6.567 0 0 1-6.568 6.567H19.649a6.567 6.567 0 0 1-6.568-6.567V75.77a6.57 6.57 0 0 1 6.568-6.567m0 2.919A3.65 3.65 0 0 0 16 75.77v22.622a3.65 3.65 0 0 0 3.649 3.649h87.567a3.65 3.65 0 0 0 3.649-3.65v-22.62a3.65 3.65 0 0 0-3.649-3.65z"
      clip-rule="evenodd" />
    <path fill="#fff"
      d="M16 91.095a3.65 3.65 0 0 1 3.649-3.65h87.567a3.65 3.65 0 0 1 3.649 3.65v7.297a3.65 3.65 0 0 1-3.649 3.649H19.649A3.65 3.65 0 0 1 16 98.391z" />
    <path fill="#999" fill-rule="evenodd"
      d="M19.649 84.527h87.567a6.567 6.567 0 0 1 6.568 6.568v7.297a6.567 6.567 0 0 1-6.568 6.567H19.649a6.567 6.567 0 0 1-6.568-6.567v-7.297a6.57 6.57 0 0 1 6.568-6.568m0 2.919A3.65 3.65 0 0 0 16 91.095v7.297a3.65 3.65 0 0 0 3.649 3.649h87.567a3.65 3.65 0 0 0 3.649-3.65v-7.296a3.65 3.65 0 0 0-3.649-3.65z"
      clip-rule="evenodd" />
  </g>
  <path fill="#fff"
    d="M142.861 96V31.178h25.875c13.162 0 22.057 8.67 22.057 21.652v.09c0 12.937-8.895 21.652-22.057 21.652h-14.285V96zm23.045-55.344h-11.455v24.572h11.455c8.31 0 13.162-4.492 13.162-12.263v-.09c0-7.772-4.852-12.219-13.162-12.219m52.881 56.332c-14.735 0-23.629-9.613-23.629-25.515v-.09c0-15.768 9.029-25.426 23.629-25.426 14.644 0 23.629 9.613 23.629 25.426v.09c0 15.902-8.94 25.515-23.629 25.515m0-9.074c7.771 0 12.174-6.064 12.174-16.396v-.09c0-10.332-4.448-16.442-12.174-16.442-7.772 0-12.219 6.11-12.219 16.442v.09c0 10.332 4.447 16.396 12.219 16.396M250.15 96V46.9h11.186v7.547h.763c1.663-5.256 6.155-8.355 12.623-8.355 1.708 0 3.459.224 4.538.539v10.017c-1.797-.359-3.639-.629-5.571-.629-7.457 0-12.353 4.448-12.353 11.456V96zm55.172.225c-11.275 0-15.902-3.774-15.902-13.252V55.57h-7.637V46.9h7.637V34.861h11.365v12.04h10.377v8.67h-10.377v24.751c0 4.897 1.932 6.963 6.604 6.963 1.572 0 2.425-.045 3.773-.18v8.626c-1.617.314-3.684.494-5.84.494m34.239.763c-14.735 0-23.629-9.613-23.629-25.515v-.09c0-15.768 9.029-25.426 23.629-25.426 14.644 0 23.628 9.613 23.628 25.426v.09c0 15.902-8.939 25.515-23.628 25.515m0-9.074c7.771 0 12.173-6.064 12.173-16.396v-.09c0-10.332-4.447-16.442-12.173-16.442-7.772 0-12.219 6.11-12.219 16.442v.09c0 10.332 4.447 16.396 12.219 16.396" />
</svg>