<svg xmlns="http://www.w3.org/2000/svg" fill="none" viewBox="0 0 71 71">
  <circle cx="35.5" cy="35.5" r="35.5" fill="#0588F0"/>
  <path fill="#fff" d="M45.67 33.77a2.64 2.64 0 0 1 3.04 1.2l6.82 11.7a2.22 2.22 0 0 1-1.9 3.33H18.48a2.22 2.22 0 0 1-1.8-3.5l3.1-4.39c.35-.48.84-.84 1.4-1.01l24.49-7.33Z"/>
  <path fill="#fff" d="M33.04 17.29a1.1 1.1 0 0 1 2.05.33l2.88 15.08c.15.77-.31 1.54-1.07 1.77l-13.62 4.19a1.1 1.1 0 0 1-1.29-1.6l11.05-19.77Z" opacity=".75"/>
  <path fill="#fff" d="M36.52 16.8c-.14-.74 1.04-1.11 1.42-.47l8.27 14.54c.22.37.03.86-.4.97l-5 1.4c-.63.17-1.16-.2-1.28-.83l-3-15.62Z" opacity=".5"/>
</svg>