<svg xmlns="http://www.w3.org/2000/svg" fill="none" viewBox="0 0 595 595">
  <path fill="#0688F1" d="M0 0h595v595H0z"/>
  <path fill="#fff" d="M373.32 285.85a20.71 20.71 0 0 1 23.84 9.44l53.44 91.56c6.76 11.58-1.56 26.15-14.92 26.15H160.33c-14.05 0-22.24-15.91-14.11-27.41l24.3-34.4a20.76 20.76 0 0 1 11-7.92l191.8-57.42Z"/>
  <path fill="#fff" d="M274.4 156.72c3.94-7.06 14.51-5.34 16.03 2.61L313 277.44a12.16 12.16 0 0 1-8.35 13.92l-106.75 32.8c-7.46 2.28-13.89-5.73-10.07-12.56l86.57-154.88Z" opacity=".75"/>
  <path fill="#fff" d="M301.68 149.22c-1.11-5.77 6.65-8.68 9.58-3.6l67.79 117.51a5.22 5.22 0 0 1-3.1 7.63l-39.27 10.96a8.65 8.65 0 0 1-10.8-6.72l-24.2-125.78Z" opacity=".5"/>
</svg>