<svg xmlns="http://www.w3.org/2000/svg" xml:space="preserve" enable-background="new 0 0 100 100" viewBox="0 0 100 100">
  <style>
    circle {
      fill: #ff0420;
    }
    path {
      fill: #ffffff;
    }
  </style>
  <circle cx="50" cy="50" r="50" fill="#ff0420" />
  <path d="M51.9 64c-.3 0-.5-.1-.6-.3-.2-.2-.2-.4-.2-.7l5.2-24.7.4-.7c.2-.2.5-.3.7-.3h10.1c1.5 0 2.9.2 4.2.5 1.3.4 2.3.9 3.2 1.6.8.7 1.4 1.7 1.7 2.8.3 1.1.3 2.4 0 3.8a10 10 0 0 1-3.9 6.5 12.9 12.9 0 0 1-7.8 2.1h-5.1l-1.7 8.3-.4.7a1 1 0 0 1-.7.3h-5.1zm9-14.5h4.4c1 0 2-.3 2.8-.8a4 4 0 0 0 1.6-2.5c.1-.7.2-1.2.1-1.7s-.3-.9-.8-1.2c-.4-.3-1.1-.5-2-.5h-4.6l-1.5 6.7zM35.6 64.4c-1.6 0-3.1-.2-4.4-.6a9.8 9.8 0 0 1-3.5-1.9 7.6 7.6 0 0 1-2-3.2 11 11 0 0 1-.2-4.5l.6-3.3.8-3.3c.8-3.4 2.3-6 4.5-7.8 2.2-1.8 5.1-2.7 8.8-2.7a12.3 12.3 0 0 1 7.9 2.7 7 7 0 0 1 2 3.3c.4 1.3.5 2.8.2 4.5l-.6 3.3L49 54c-.9 3.5-2.4 6.1-4.6 7.8a14 14 0 0 1-8.8 2.6zm.5-5.5c1.4 0 2.6-.4 3.6-1.2 1-.8 1.8-2.1 2.2-3.9l.7-3.2.6-3.1c.3-1.8.2-3.1-.5-3.9-.6-.8-1.6-1.2-3-1.2s-2.6.4-3.6 1.2c-1 .8-1.7 2.1-2.2 3.9l-.8 3.1-.6 3.2c-.3 1.8-.2 3.1.5 3.9.7.8 1.7 1.2 3.1 1.2z" class="st1"/>
</svg>
