<svg xmlns="http://www.w3.org/2000/svg" fill="none" class="dark:invert" viewBox="0 0 16 17">
<style>
    path {
      stroke: black;
    }
    @media (prefers-color-scheme: dark) {
      path {
        stroke: white;
      }
    }
</style>
  <path stroke="#fff" stroke-linecap="round" stroke-linejoin="round" stroke-width="1.5" d="M8 13.8A5.3 5.3 0 1 0 8 3.2a5.3 5.3 0 0 0 0 10.6Z"/>
  <path stroke="#fff" stroke-linecap="round" stroke-linejoin="round" stroke-width="1.5" d="M8 9.8a1.3 1.3 0 1 0 0-2.6 1.3 1.3 0 0 0 0 2.6Zm0-8v1.4m0 12v-1.4m3.3.5-.6-1.2M7.3 7.3 4.7 2.7m9.1 9.1-1.2-.6m-10.4-6 1.2.6m5.9 2.7h5.4m-13.4 0h1.4m11.1-3.3-1.2.6m-10.4 6 1.2-.6m7.9-8.5L10.7 4M7.3 9.7l-2.6 4.6"/>
</svg>