<svg width="310" height="270" viewBox="0 0 310 270" fill="none" xmlns="http://www.w3.org/2000/svg">
<path d="M230.325 142.852C239.487 140.109 249.33 144.005 254.163 152.287L307.601 243.855C314.357 255.432 306.042 270 292.678 270H17.3266C3.28438 270 -4.90514 254.087 3.21898 242.587L27.5208 208.188C30.2035 204.391 34.0755 201.604 38.5192 200.274L230.325 142.852Z" fill="white"/>
<path opacity="0.75" d="M131.398 13.7191C135.343 6.66017 145.914 8.38328 147.433 16.3329L169.996 134.441C171.161 140.539 167.562 146.539 161.648 148.355L54.8997 181.152C47.4404 183.443 41.01 175.429 44.8277 168.599L131.398 13.7191Z" fill="white"/>
<path opacity="0.5" d="M158.675 6.21863C157.566 0.45227 165.328 -2.46256 168.26 2.61951L236.048 120.133C237.75 123.083 236.218 126.851 232.947 127.764L193.677 138.716C188.812 140.073 183.829 136.974 182.871 131.997L158.675 6.21863Z" fill="white"/>
</svg>
