<svg xmlns="http://www.w3.org/2000/svg" fill="none" viewBox="0 0 299 641">
  <g opacity=".23">
    <path fill="#fff" fill-opacity=".2"
      d="M776.94 51.97A51.93 51.93 0 0 0 725.04 0H79.29a51.93 51.93 0 0 0-51.9 51.97v537.06a28.85 28.85 0 0 0 28.84 28.87H748.1a28.85 28.85 0 0 0 28.83-28.87V51.97Z" />
    <path fill="#fff" fill-opacity=".2"
      d="M776.94 288.74a28.85 28.85 0 0 0-28.83-28.88H56.2a28.85 28.85 0 0 0-28.82 28.88v300.29a28.85 28.85 0 0 0 28.83 28.87H748.1a28.85 28.85 0 0 0 28.83-28.87v-300.3Z" />
    <path fill="#0D74CE" fill-rule="evenodd"
      d="M748.1 236.76H56.23a51.93 51.93 0 0 0-51.9 51.98v300.29A51.93 51.93 0 0 0 56.22 641H748.1a51.93 51.93 0 0 0 51.9-51.97v-300.3a51.93 51.93 0 0 0-51.9-51.97Zm0 23.1a28.85 28.85 0 0 1 28.84 28.88v300.29a28.85 28.85 0 0 1-28.83 28.87H56.2a28.85 28.85 0 0 1-28.82-28.87v-300.3a28.85 28.85 0 0 1 28.83-28.87H748.1Z"
      clip-rule="evenodd" />
    <path fill="#fff" fill-opacity=".4"
      d="M776.94 410.01a28.85 28.85 0 0 0-28.83-28.88H56.2a28.85 28.85 0 0 0-28.82 28.88v179.02a28.85 28.85 0 0 0 28.83 28.87H748.1a28.85 28.85 0 0 0 28.83-28.87V410Z" />
    <path fill="#0D74CE" fill-rule="evenodd"
      d="M748.1 358.04H56.23A51.93 51.93 0 0 0 4.32 410v179.02A51.93 51.93 0 0 0 56.22 641H748.1a51.93 51.93 0 0 0 51.9-51.97V410a51.93 51.93 0 0 0-51.9-51.97Zm0 23.1A28.85 28.85 0 0 1 776.95 410v179.02a28.85 28.85 0 0 1-28.83 28.87H56.2a28.85 28.85 0 0 1-28.82-28.87V410a28.85 28.85 0 0 1 28.83-28.88H748.1Z"
      clip-rule="evenodd" />
    <path fill="#fff" fill-opacity=".5"
      d="M776.94 531.28a28.85 28.85 0 0 0-28.83-28.87H56.2a28.85 28.85 0 0 0-28.82 28.87v57.75a28.85 28.85 0 0 0 28.83 28.87H748.1a28.85 28.85 0 0 0 28.83-28.87v-57.75Z" />
    <path fill="#0D74CE" fill-rule="evenodd"
      d="M748.1 479.3H56.23a51.93 51.93 0 0 0-51.9 51.98v57.75A51.93 51.93 0 0 0 56.22 641H748.1a51.93 51.93 0 0 0 51.9-51.97v-57.75a51.93 51.93 0 0 0-51.9-51.97Zm0 23.1a28.85 28.85 0 0 1 28.84 28.88v57.75a28.85 28.85 0 0 1-28.83 28.87H56.2a28.85 28.85 0 0 1-28.82-28.87v-57.75a28.85 28.85 0 0 1 28.83-28.87H748.1Z"
      clip-rule="evenodd" />
    <path fill="#fff"
      d="M151.35 51.97h5.77c39.8 0 72.07 32.32 72.07 72.19 0 39.86-32.27 72.18-72.07 72.18h-5.77c-39.8 0-72.07-32.32-72.07-72.18 0-39.87 32.27-72.19 72.07-72.19Z" />
  </g>
</svg>