<svg xmlns="http://www.w3.org/2000/svg" fill="none" viewBox="0 0 15 14" class="dark:invert">
  <style>
    path {
      fill: black;
    }
    @media (prefers-color-scheme: dark) {
      path { fill: black; }
    }
  </style>
  <g fill="currentColor" clip-path="url(#a)">
    <path d="M10.66 7.3c.38-.12.8.04 1 .37l2.24 3.65c.28.47-.07 1.05-.63 1.05H1.73c-.6 0-.94-.64-.6-1.1L2.15 9.9a.87.87 0 0 1 .47-.32l8.04-2.29Z"/>
    <path d="M6.51 2.14c.17-.29.6-.22.67.1l.95 4.72c.05.24-.1.48-.35.55L3.3 8.82c-.31.1-.58-.23-.42-.5l3.63-6.18Z" opacity=".75"/>
    <path d="M7.65 1.84c-.04-.23.28-.35.4-.15l2.85 4.7a.2.2 0 0 1-.13.3l-1.65.44a.36.36 0 0 1-.45-.27L7.65 1.84Z" opacity=".5"/>
  </g>
  <defs>
    <clipPath id="a">
      <path fill="currentColor" d="M0 0h13v11H0z" transform="translate(1 1.48)"/>
    </clipPath>
  </defs>
</svg>