<svg xmlns="http://www.w3.org/2000/svg" viewBox="0 0 32 32">
  <g fill="none">
    <circle cx="16" cy="16" r="16" fill="#3E73C4" />
    <g fill="#FFF">
      <path
        d="M20.02 18.12c0-2.12-1.28-2.85-3.84-3.15-1.83-.25-2.2-.73-2.2-1.58s.62-1.4 1.84-1.4c1.1 0 1.7.37 2 1.28a.46.46 0 0 0 .43.3h.98a.42.42 0 0 0 .43-.42v-.06a3.04 3.04 0 0 0-2.75-2.5V9.15c0-.24-.18-.42-.48-.48h-.92c-.24 0-.42.18-.48.48v1.4c-1.83.24-3 1.45-3 2.97 0 2 1.23 2.8 3.79 3.1 1.7.3 2.25.66 2.25 1.64 0 .97-.85 1.63-2 1.63-1.6 0-2.14-.66-2.32-1.57-.06-.25-.25-.37-.43-.37h-1.04a.42.42 0 0 0-.42.43v.06c.24 1.51 1.22 2.6 3.23 2.91v1.46c0 .24.18.42.48.48h.92c.24 0 .42-.18.49-.48v-1.46c1.82-.3 3.04-1.58 3.04-3.22z" />
      <path
        d="M12.9 24.5a9.03 9.03 0 0 1-5.43-11.66 9 9 0 0 1 5.42-5.4c.25-.12.37-.3.37-.6v-.86c0-.24-.12-.42-.37-.48-.06 0-.18 0-.24.06a10.9 10.9 0 0 0-7.13 13.72c1.1 3.4 3.72 6 7.13 7.1.24.12.49 0 .55-.24.06-.06.06-.13.06-.25v-.85c0-.18-.19-.42-.37-.54m6.46-18.94c-.24-.12-.49 0-.55.24-.06.06-.06.13-.06.25v.85c0 .24.19.48.37.6a9.03 9.03 0 0 1 5.42 11.66 9 9 0 0 1-5.42 5.4c-.25.12-.37.3-.37.6v.86c0 .24.12.42.37.48.06 0 .18 0 .24-.06a10.9 10.9 0 0 0 7.13-13.72 11.03 11.03 0 0 0-7.13-7.16" />
    </g>
  </g>
</svg>