<svg xmlns="http://www.w3.org/2000/svg" width="32" height="32">
  <g fill="none">
    <path fill="#000"
      d="M16 1C7.715 1 1 7.715 1 16s6.715 15 15 15 15-6.715 15-15S24.285 1 16 1m0 1c7.733 0 14 6.267 14 14s-6.267 14-14 14S2 23.733 2 16 8.267 2 16 2"
      opacity=".502" />
    <path fill="#fff" d="M16 2c7.733 0 14 6.267 14 14s-6.267 14-14 14S2 23.733 2 16 8.267 2 16 2" />
    <path fill="#0a2d4d"
      d="M14 10.501c0-.276.215-.501.49-.501h3.02c.27 0 .49.22.49.496v5.608c0 .274-.165.645-.372.831l-.256.23a.467.467 0 0 0-.022.685l.3.3c.193.193.35.58.35.851V21.5a.493.493 0 0 1-.49.501h-3.02a.49.49 0 0 1-.49-.5V16c0-.276.156-.656.35-.85l.3-.3a.494.494 0 0 0 0-.7l-.3-.3a1.4 1.4 0 0 1-.35-.851z" />
    <path fill="#198cff"
      d="M16 5c6.076 0 11 4.924 11 11s-4.924 11-11 11S5 22.076 5 16 9.924 5 16 5m0 3c-4.419 0-8 3.581-8 8s3.581 8 8 8 8-3.581 8-8-3.581-8-8-8" />
  </g>
</svg>